<svg id="my-svg" width="100%" xmlns="http://www.w3.org/2000/svg" xmlns:xlink="http://www.w3.org/1999/xlink" style="max-width: 907.848px; background-color: transparent;" viewBox="-8 -8 907.84765625 517.6221618652344" role="graphics-document document" aria-roledescription="flowchart-v2"><style>#my-svg{font-family:Segoe UI,Arial,sans-serif;font-size:15px;fill:#16201a;}#my-svg .error-icon{fill:#ffffff;}#my-svg .error-text{fill:#000000;stroke:#000000;}#my-svg .edge-thickness-normal{stroke-width:2px;}#my-svg .edge-thickness-thick{stroke-width:3.5px;}#my-svg .edge-pattern-solid{stroke-dasharray:0;}#my-svg .edge-pattern-dashed{stroke-dasharray:3;}#my-svg .edge-pattern-dotted{stroke-dasharray:2;}#my-svg .marker{fill:#006b3f;stroke:#006b3f;}#my-svg .marker.cross{stroke:#006b3f;}#my-svg svg{font-family:Segoe UI,Arial,sans-serif;font-size:15px;}#my-svg .label{font-family:Segoe UI,Arial,sans-serif;color:#16201a;}#my-svg .cluster-label text{fill:#000000;}#my-svg .cluster-label span,#my-svg p{color:#000000;}#my-svg .label text,#my-svg span,#my-svg p{fill:#16201a;color:#16201a;}#my-svg .node rect,#my-svg .node circle,#my-svg .node ellipse,#my-svg .node polygon,#my-svg .node path{fill:#e7f0ea;stroke:#006b3f;stroke-width:1px;}#my-svg .flowchart-label text{text-anchor:middle;}#my-svg .node .katex path{fill:#000;stroke:#000;stroke-width:1px;}#my-svg .node .label{text-align:center;}#my-svg .node.clickable{cursor:pointer;}#my-svg .arrowheadPath{fill:#0b0b0b;}#my-svg .edgePath .path{stroke:#006b3f;stroke-width:2.0px;}#my-svg .flowchart-link{stroke:#006b3f;fill:none;}#my-svg .edgeLabel{background-color:#f2f5ee;text-align:center;}#my-svg .edgeLabel rect{opacity:0.5;background-color:#f2f5ee;fill:#f2f5ee;}#my-svg .labelBkg{background-color:rgba(242, 245, 238, 0.5);}#my-svg .cluster rect{fill:#ffffff;stroke:hsl(0, 0%, 90%);stroke-width:1px;}#my-svg .cluster text{fill:#000000;}#my-svg .cluster span,#my-svg p{color:#000000;}#my-svg div.mermaidTooltip{position:absolute;text-align:center;max-width:200px;padding:2px;font-family:Segoe UI,Arial,sans-serif;font-size:12px;background:#ffffff;border:1px solid hsl(0, 0%, 90%);border-radius:2px;pointer-events:none;z-index:100;}#my-svg .flowchartTitleText{text-anchor:middle;font-size:18px;fill:#16201a;}#my-svg :root{--mermaid-font-family:"trebuchet ms",verdana,arial,sans-serif;}</style><g><marker id="my-svg_flowchart-pointEnd" class="marker flowchart" viewBox="0 0 10 10" refX="6" refY="5" markerUnits="userSpaceOnUse" markerWidth="12" markerHeight="12" orient="auto"><path d="M 0 0 L 10 5 L 0 10 z" class="arrowMarkerPath" style="stroke-width: 1; stroke-dasharray: 1, 0;"/></marker><marker id="my-svg_flowchart-pointStart" class="marker flowchart" viewBox="0 0 10 10" refX="4.5" refY="5" markerUnits="userSpaceOnUse" markerWidth="12" markerHeight="12" orient="auto"><path d="M 0 5 L 10 10 L 10 0 z" class="arrowMarkerPath" style="stroke-width: 1; stroke-dasharray: 1, 0;"/></marker><marker id="my-svg_flowchart-circleEnd" class="marker flowchart" viewBox="0 0 10 10" refX="11" refY="5" markerUnits="userSpaceOnUse" markerWidth="11" markerHeight="11" orient="auto"><circle cx="5" cy="5" r="5" class="arrowMarkerPath" style="stroke-width: 1; stroke-dasharray: 1, 0;"/></marker><marker id="my-svg_flowchart-circleStart" class="marker flowchart" viewBox="0 0 10 10" refX="-1" refY="5" markerUnits="userSpaceOnUse" markerWidth="11" markerHeight="11" orient="auto"><circle cx="5" cy="5" r="5" class="arrowMarkerPath" style="stroke-width: 1; stroke-dasharray: 1, 0;"/></marker><marker id="my-svg_flowchart-crossEnd" class="marker cross flowchart" viewBox="0 0 11 11" refX="12" refY="5.2" markerUnits="userSpaceOnUse" markerWidth="11" markerHeight="11" orient="auto"><path d="M 1,1 l 9,9 M 10,1 l -9,9" class="arrowMarkerPath" style="stroke-width: 2; stroke-dasharray: 1, 0;"/></marker><marker id="my-svg_flowchart-crossStart" class="marker cross flowchart" viewBox="0 0 11 11" refX="-1" refY="5.2" markerUnits="userSpaceOnUse" markerWidth="11" markerHeight="11" orient="auto"><path d="M 1,1 l 9,9 M 10,1 l -9,9" class="arrowMarkerPath" style="stroke-width: 2; stroke-dasharray: 1, 0;"/></marker><g class="root"><g class="clusters"><g class="cluster default flowchart-label" id="FIELD"><rect style="" rx="0" ry="0" x="0" y="0" width="891.84765625" height="230"/><g class="cluster-label" transform="translate(369.384765625, 0)"><foreignObject width="153.078125" height="20"><div xmlns="http://www.w3.org/1999/xhtml" style="display: inline-block; white-space: nowrap;"><span class="nodeLabel">📱 In the field (tablets)</span></div></foreignObject></g></g></g><g class="edgePaths"><path d="M377.895,66.74L331.044,74.783C284.194,82.827,190.493,98.913,151.385,112.289C112.276,125.665,127.759,136.329,135.5,141.661L143.242,146.994" id="L-SUP-EN1-0" class=" edge-thickness-normal edge-pattern-dotted flowchart-link LS-SUP LE-EN1" style="fill:none;stroke-width:2px;stroke-dasharray:3;" marker-end="url(#my-svg_flowchart-pointEnd)"/><path d="M460.84,80L460.84,85.833C460.84,91.667,460.84,103.333,468.581,114.499C476.323,125.665,491.806,136.329,499.547,141.661L507.288,146.994" id="L-SUP-EN2-0" class=" edge-thickness-normal edge-pattern-dotted flowchart-link LS-SUP LE-EN2" style="fill:none;stroke-width:2px;stroke-dasharray:3;" marker-end="url(#my-svg_flowchart-pointEnd)"/><path d="M227.697,150L236.217,144.167C244.737,138.333,261.777,126.667,286.45,115.287C311.123,103.907,343.43,92.814,359.583,87.268L375.737,81.721" id="L-EN1-SUP-0" class=" edge-thickness-normal edge-pattern-dotted flowchart-link LS-EN1 LE-SUP" style="fill:none;stroke-width:2px;stroke-dasharray:3;" marker-end="url(#my-svg_flowchart-pointEnd)"/><path d="M591.744,150L600.264,144.167C608.783,138.333,625.823,126.667,618.19,115.287C610.556,103.907,578.25,92.814,562.096,87.268L545.943,81.721" id="L-EN2-SUP-0" class=" edge-thickness-normal edge-pattern-dotted flowchart-link LS-EN2 LE-SUP" style="fill:none;stroke-width:2px;stroke-dasharray:3;" marker-end="url(#my-svg_flowchart-pointEnd)"/><path d="M187.531,205L187.531,209.167C187.531,213.333,187.531,221.667,187.531,231.667C187.531,241.667,187.531,253.333,219.361,268.845C251.19,284.357,314.849,303.714,346.678,313.392L378.507,323.071" id="L-EN1-CSWEB-0" class=" edge-thickness-thick edge-pattern-solid flowchart-link LS-EN1 LE-CSWEB" style="stroke-width: 3.5px;fill:none;" marker-end="url(#my-svg_flowchart-pointEnd)"/><path d="M543.785,68.242L584.848,76.035C625.91,83.828,708.035,99.414,749.098,117.624C790.16,135.833,790.16,156.667,790.16,175.833C790.16,195,790.16,212.5,790.16,227.083C790.16,241.667,790.16,253.333,749.232,269.542C708.304,285.751,626.447,306.501,585.519,316.876L544.591,327.252" id="L-SUP-CSWEB-0" class=" edge-thickness-thick edge-pattern-solid flowchart-link LS-SUP LE-CSWEB" style="stroke-width: 3.5px;fill:none;" marker-end="url(#my-svg_flowchart-pointEnd)"/><path d="M461.516,396.622L461.516,400.789C461.516,404.955,461.516,413.289,461.516,420.739C461.516,428.189,461.516,434.755,461.516,438.039L461.516,441.322" id="L-CSWEB-MON-0" class=" edge-thickness-normal edge-pattern-solid flowchart-link LS-CSWEB LE-MON" style="fill:none;" marker-end="url(#my-svg_flowchart-pointEnd)"/></g><g class="edgeLabels"><g class="edgeLabel" transform="translate(96.79296875, 115)"><g class="label" transform="translate(-71.3515625, -10)"><foreignObject width="142.703125" height="20"><div xmlns="http://www.w3.org/1999/xhtml" style="display: inline-block; white-space: nowrap;"><span class="edgeLabel">Assign EA (Bluetooth)</span></div></foreignObject></g></g><g class="edgeLabel" transform="translate(460.83984375, 115)"><g class="label" transform="translate(-71.3515625, -10)"><foreignObject width="142.703125" height="20"><div xmlns="http://www.w3.org/1999/xhtml" style="display: inline-block; white-space: nowrap;"><span class="edgeLabel">Assign EA (Bluetooth)</span></div></foreignObject></g></g><g class="edgeLabel" transform="translate(278.81640625, 115)"><g class="label" transform="translate(-90.671875, -10)"><foreignObject width="181.34375" height="20"><div xmlns="http://www.w3.org/1999/xhtml" style="display: inline-block; white-space: nowrap;"><span class="edgeLabel">Send interviews (Bluetooth)</span></div></foreignObject></g></g><g class="edgeLabel" transform="translate(642.86328125, 115)"><g class="label" transform="translate(-90.671875, -10)"><foreignObject width="181.34375" height="20"><div xmlns="http://www.w3.org/1999/xhtml" style="display: inline-block; white-space: nowrap;"><span class="edgeLabel">Send interviews (Bluetooth)</span></div></foreignObject></g></g><g class="edgeLabel" transform="translate(187.53125, 265)"><g class="label" transform="translate(-68.609375, -10)"><foreignObject width="137.21875" height="20"><div xmlns="http://www.w3.org/1999/xhtml" style="display: inline-block; white-space: nowrap;"><span class="edgeLabel">Direct sync (internet)</span></div></foreignObject></g></g><g class="edgeLabel" transform="translate(790.16015625, 177.5)"><g class="label" transform="translate(-81.6875, -10)"><foreignObject width="163.375" height="20"><div xmlns="http://www.w3.org/1999/xhtml" style="display: inline-block; white-space: nowrap;"><span class="edgeLabel">Relay collected (internet)</span></div></foreignObject></g></g><g class="edgeLabel"><g class="label" transform="translate(0, 0)"><foreignObject width="0" height="0"><div xmlns="http://www.w3.org/1999/xhtml" style="display: inline-block; white-space: nowrap;"><span class="edgeLabel"></span></div></foreignObject></g></g></g><g class="nodes"><g class="node default default flowchart-label" id="flowchart-SUP-0" data-node="true" data-id="SUP" transform="translate(460.83984375, 52.5)"><rect class="basic label-container" style="" rx="0" ry="0" x="-82.9453125" y="-27.5" width="165.890625" height="55"/><g class="label" style="" transform="translate(-75.4453125, -20)"><rect/><foreignObject width="150.890625" height="40"><div xmlns="http://www.w3.org/1999/xhtml" style="display: inline-block; white-space: nowrap;"><span class="nodeLabel">Supervisor tablet<br />LoginApp → MenuApp</span></div></foreignObject></g></g><g class="node default default flowchart-label" id="flowchart-EN1-1" data-node="true" data-id="EN1" transform="translate(187.53125, 177.5)"><rect class="basic label-container" style="" rx="0" ry="0" x="-67.234375" y="-27.5" width="134.46875" height="55"/><g class="label" style="" transform="translate(-59.734375, -20)"><rect/><foreignObject width="119.46875" height="40"><div xmlns="http://www.w3.org/1999/xhtml" style="display: inline-block; white-space: nowrap;"><span class="nodeLabel">Enumerator tablet<br />F1 / F3 / F4</span></div></foreignObject></g></g><g class="node default default flowchart-label" id="flowchart-EN2-2" data-node="true" data-id="EN2" transform="translate(551.578125, 177.5)"><rect class="basic label-container" style="" rx="0" ry="0" x="-67.234375" y="-27.5" width="134.46875" height="55"/><g class="label" style="" transform="translate(-59.734375, -20)"><rect/><foreignObject width="119.46875" height="40"><div xmlns="http://www.w3.org/1999/xhtml" style="display: inline-block; white-space: nowrap;"><span class="nodeLabel">Enumerator tablet<br />F1 / F3 / F4</span></div></foreignObject></g></g><g class="node default default flowchart-label" id="flowchart-CSWEB-12" label-offset-y="13.874054294615043" data-node="true" data-id="CSWEB" transform="translate(461.515625, 348.3110771179199)"><path style="" d="M 0,13.874054294615043 a 77.9375,13.874054294615043 0,0,0 155.875 0 a 77.9375,13.874054294615043 0,0,0 -155.875 0 l 0,68.87405429461504 a 77.9375,13.874054294615043 0,0,0 155.875 0 l 0,-68.87405429461504" transform="translate(-77.9375,-48.31108144192256)"/><g class="label" style="" transform="translate(-70.4375, -20)"><rect/><foreignObject width="140.875" height="40"><div xmlns="http://www.w3.org/1999/xhtml" style="display: inline-block; white-space: nowrap;"><span class="nodeLabel">CSWeb server<br />csweb.asiansocial.org</span></div></foreignObject></g></g><g class="node default default flowchart-label" id="flowchart-MON-16" data-node="true" data-id="MON" transform="translate(461.515625, 474.12215423583984)"><rect class="basic label-container" style="" rx="0" ry="0" x="-91.6953125" y="-27.5" width="183.390625" height="55"/><g class="label" style="" transform="translate(-84.1953125, -20)"><rect/><foreignObject width="168.390625" height="40"><div xmlns="http://www.w3.org/1999/xhtml" style="display: inline-block; white-space: nowrap;"><span class="nodeLabel">Data manager<br />Sync Report · Map Report</span></div></foreignObject></g></g></g></g></g></svg>